<?xml version="1.0" ?><!DOCTYPE svg  PUBLIC '-//W3C//DTD SVG 1.1//EN'  'http://www.w3.org/Graphics/SVG/1.1/DTD/svg11.dtd'><svg xmlns="http://www.w3.org/2000/svg" xmlns:xlink="http://www.w3.org/1999/xlink"><symbol viewBox="0 0 512 512" id="folder"><path d="M430.1 192H81.9c-17.7 0-18.6 9.2-17.6 20.5l13 183c.9 11.2 3.5 20.5 21.1 20.5h316.2c18 0 20.1-9.2 21.1-20.5l12.1-185.3c.9-11.2 0-18.2-17.7-18.2zM426.2 143.3c-.5-12.4-4.5-15.3-15.1-15.3H267.9c-21.8 0-24.4.3-40.9-17.4-13.7-14.8-8.3-14.6-36.6-14.6h-75.3c-17.4 0-23.6-1.5-25.2 16.6-1.5 16.7-5 57.2-5.5 63.4h343.4l-1.6-32.7z"/></symbol><symbol id="folder-create" viewBox="-41 164.9 512 512"><style>.bst0{fill:#FFF;stroke:#FFF;stroke-width:30;stroke-miterlimit:10}</style><path d="M389.1 356.9H40.9c-17.7 0-18.6 9.2-17.6 20.5l13 183c.9 11.2 3.5 20.5 21.1 20.5h316.2c18 0 20.1-9.2 21.1-20.5l12.1-185.3c.9-11.2 0-18.2-17.7-18.2zM385.2 308.2c-.5-12.4-4.5-15.3-15.1-15.3H226.9c-21.8 0-24.4.3-40.9-17.4-13.7-14.8-8.3-14.6-36.6-14.6H74.1c-17.4 0-23.6-1.5-25.2 16.6-1.5 16.7-5 57.2-5.5 63.4h343.4l-1.6-32.7z"/><path class="bst0" d="M219.1 383.8v173M132.6 470.3h173"/></symbol></svg>