<?xml version="1.0" encoding="utf-8"?>
<!-- Generator: Adobe Illustrator 19.1.1, SVG Export Plug-In . SVG Version: 6.00 Build 0)  -->
<svg version="1.1" id="Layer_1" xmlns="http://www.w3.org/2000/svg" xmlns:xlink="http://www.w3.org/1999/xlink" x="0px" y="0px"
	 viewBox="-41 164.9 512 512" style="enable-background:new -41 164.9 512 512;" xml:space="preserve">
<style type="text/css">
	.st0{fill:#FFFFFF;stroke:#FFFFFF;stroke-width:30;stroke-miterlimit:10;}
</style>
<g>
	<path d="M389.1,356.9H40.9c-17.7,0-18.6,9.2-17.6,20.5l13,183c0.9,11.2,3.5,20.5,21.1,20.5h316.2c18,0,20.1-9.2,21.1-20.5
		l12.1-185.3C407.7,363.9,406.8,356.9,389.1,356.9z"/>
	<g>
		<path d="M385.2,308.2c-0.5-12.4-4.5-15.3-15.1-15.3c0,0-121.4,0-143.2,0s-24.4,0.3-40.9-17.4c-13.7-14.8-8.3-14.6-36.6-14.6
			c-22.6,0-75.3,0-75.3,0c-17.4,0-23.6-1.5-25.2,16.6c-1.5,16.7-5,57.2-5.5,63.4h343.4L385.2,308.2z"/>
	</g>
</g>
<line class="st0" x1="219.1" y1="383.8" x2="219.1" y2="556.8"/>
<line class="st0" x1="132.6" y1="470.3" x2="305.6" y2="470.3"/>
</svg>
